<svg width="120" height="54" viewBox="0 0 120 54" fill="none" xmlns="http://www.w3.org/2000/svg">
<path d="M0 21.3715C1.09673 21.208 2.12715 20.7191 3.29146 20.6225C3.39788 24.9842 4.35377 29.1447 5.09525 33.47C5.21082 33.2723 5.31061 33.17 5.33272 33.0535C5.83261 30.399 6.30471 27.7394 6.8264 25.0893C7.03892 24.0099 6.92429 22.9817 6.59777 21.9548C6.55135 21.8095 6.52103 21.6589 6.45977 21.417C7.51829 21.1372 8.54144 20.8669 9.64481 20.5751C10.0035 22.7828 10.1532 24.969 10.6335 27.1078C11.1075 29.2173 11.4429 31.3577 11.9823 33.5092C12.0552 33.2682 12.1553 33.0317 12.1964 32.7854C12.4244 31.4206 12.6388 30.0535 12.8561 28.6871C13.0237 27.6324 13.2072 26.5795 13.3512 25.5216C13.5713 23.9051 13.7633 22.2848 13.9758 20.5956C15.0072 20.8868 15.9868 21.1637 16.9951 21.4486C15.6069 27.9756 14.6507 34.5241 13.4996 41.1168C12.5261 41.258 11.5784 41.1314 10.5448 41.2144C9.88418 37.7745 9.22955 34.365 8.57492 30.9554C8.53355 30.9563 8.4925 30.9573 8.45113 30.9582C7.78924 34.3258 7.12734 37.6934 6.4544 41.1178C5.45556 41.2564 4.51135 41.1765 3.48757 41.1813C3.34357 40.3438 3.19704 39.5155 3.05967 38.6856C2.87462 37.5693 2.69178 36.4526 2.51778 35.3344C2.37283 34.4025 2.24778 33.4672 2.10378 32.535C1.84484 30.8585 1.61273 29.1766 1.30515 27.5089C0.968523 25.6849 0.560524 23.8742 0.175894 22.0593C0.152842 21.9497 0.0603156 21.8547 0 21.753V21.3715Z" fill="black"/>
<path d="M64.1063 41.4048C63.7653 40.9109 63.9323 40.3671 63.9598 39.8401C63.9961 39.1475 64.0864 38.4556 64.0823 37.7641C64.0807 37.5086 63.919 37.2247 63.7605 37.0043C62.3385 35.029 60.8985 33.0667 59.4709 31.0952C59.2567 30.7997 59.0786 30.4782 58.7363 30.2035C58.7316 31.094 58.7407 31.9848 58.718 32.8747C58.6946 33.7908 58.6046 34.706 58.6094 35.6214C58.6141 36.5372 58.7082 37.4524 58.7474 38.3682C58.7865 39.2802 58.8061 40.1931 58.8349 41.1228C58.2418 41.2883 56.4128 41.3258 54.7864 41.1815C54.8332 40.8196 54.9058 40.4603 54.9207 40.0984C54.9494 39.3998 54.9535 38.7004 54.9538 38.0009C54.957 33.805 54.9494 29.6091 54.9664 25.4133C54.9683 24.9671 54.866 24.6279 54.5506 24.3086C54.1981 23.9518 53.9003 23.5413 53.5476 23.1162C53.9566 22.5298 54.591 22.2961 55.1291 21.938C55.6754 21.5745 56.2148 21.2006 56.7838 20.8132C57.3146 21.6772 57.7883 22.5342 58.3444 23.3341C59.1914 24.5521 60.1021 25.7259 60.9737 26.9268C61.9378 28.255 62.8877 29.593 63.8467 30.9247C63.8818 30.973 63.9475 30.9989 64.0975 31.105C64.1035 30.265 64.111 29.4917 64.1139 28.7183C64.117 27.9238 64.1186 27.1293 64.1145 26.3344C64.1107 25.5718 64.1202 24.8079 64.0842 24.0465C64.0469 23.2605 63.9617 22.4767 63.8941 21.6516C64.5993 21.429 65.2962 21.5786 65.9792 21.5496C66.6449 21.5215 67.3125 21.5436 68.0196 21.5436C68.0518 21.6734 68.1253 21.7981 68.1023 21.9014C67.8152 23.1851 67.9425 24.4896 67.9106 25.784C67.8724 27.3405 67.9851 28.9059 67.8655 30.4545C67.7088 32.4857 67.7297 34.5133 67.7701 36.541C67.7963 37.8639 67.9725 39.1835 68.0824 40.5045C68.1086 40.819 68.1607 41.1376 67.9223 41.4048H64.1063Z" fill="black"/>
<path d="M34.1429 0.163636C37.83 0.00700486 40.7132 3.18131 40.8161 6.42509C40.9387 10.2771 38.0981 13.2483 34.2938 13.3175C30.3686 13.3889 27.9004 10.2095 27.6598 7.33456C27.3162 3.22773 30.8123 -0.000574057 34.1429 0.163636Z" fill="#E91E7A"/>
<path d="M33.903 0.315634C32.4011 0.315634 30.8291 1.02363 29.6541 2.23942C28.3309 3.60867 27.6615 5.46077 27.8171 7.3214C28.0587 10.2118 30.495 13.161 34.1661 13.161C34.2078 13.161 34.2491 13.1606 34.2911 13.1597C36.0889 13.1269 37.7288 12.4264 38.9083 11.1863C40.0944 9.93928 40.7161 8.24982 40.6584 6.42993C40.6066 4.79541 39.8433 3.17699 38.5644 1.98963C37.3315 0.84521 35.7646 0.249634 34.1496 0.321634L34.1424 0.321949L34.1351 0.321318C34.0581 0.317529 33.9804 0.315634 33.903 0.315634ZM34.1658 13.4767C30.3125 13.4767 27.7562 10.3814 27.5023 7.34792C27.339 5.39635 28.0407 3.45425 29.427 2.01994C30.7233 0.67879 32.481 -0.0724699 34.1436 0.00552983C35.8334 -0.063312 37.4863 0.557843 38.7791 1.75816C40.1196 3.00268 40.9195 4.70162 40.9741 6.42014C41.0345 8.32497 40.3824 10.095 39.1369 11.4036C37.8987 12.7053 36.1798 13.4411 34.2968 13.4755C34.2529 13.4761 34.2093 13.4767 34.1658 13.4767Z" fill="black"/>
<path d="M40.7817 15.9477C41.3801 16.2202 41.9791 16.4906 42.5763 16.7659C43.1734 17.0416 43.7681 17.3223 44.3545 17.5968C45.6675 20.9359 46.9806 24.2694 48.2886 27.6047C49.5779 30.8918 50.9134 34.1615 52.1418 37.4895C51.9846 37.5214 51.9132 37.5609 51.8699 37.541C50.7543 37.0234 49.6417 36.4999 48.4569 35.9434C45.8592 29.3492 43.247 22.7185 40.6351 16.0876C40.6841 16.0409 40.7327 15.9945 40.7817 15.9477Z" fill="#E91E7A"/>
<path d="M48.5807 35.8273L49.1586 36.0986C50.1009 36.5413 51.0053 36.9654 51.9107 37.3857C51.9173 37.3841 51.9249 37.3819 51.9328 37.3794C51.0773 35.07 50.1577 32.7534 49.2682 30.5113C48.8911 29.5618 48.5144 28.6125 48.1414 27.6623C47.189 25.2329 46.2334 22.8048 45.2776 20.3745L44.2307 17.7131L43.7292 17.4781C43.325 17.2886 42.918 17.0976 42.5097 16.9094C42.0805 16.7111 41.6501 16.5156 41.219 16.3201L40.8259 16.1414L48.5807 35.8273ZM51.8968 37.704C51.8655 37.704 51.8349 37.6987 51.803 37.6838C50.8891 37.26 49.9765 36.8315 49.0244 36.3847L48.3328 36.0597L48.3101 36.0016L40.4495 16.0466L40.7498 15.7596L41.3501 16.0324C41.7811 16.2285 42.2125 16.4243 42.6423 16.6226C43.0509 16.8112 43.4586 17.0025 43.8635 17.192L44.4786 17.4803L45.5716 20.2589C46.5274 22.6893 47.4827 25.1177 48.4358 27.5467C48.8084 28.4969 49.1848 29.4455 49.5615 30.3948C50.4732 32.6918 51.4162 35.0672 52.2899 37.435L52.3537 37.608L52.1731 37.6444C52.1178 37.6554 52.0743 37.6677 52.0389 37.6775C51.9906 37.6911 51.9435 37.704 51.8968 37.704Z" fill="black"/>
<path d="M27.6016 16.1472C25.0036 22.75 22.4059 29.3529 19.7919 35.9967C18.6039 36.5462 17.3874 37.1086 15.9648 37.7664C18.6538 30.9473 21.2615 24.3334 23.8756 17.7038C25.0232 17.0115 26.3056 16.6042 27.4766 15.9477C27.5182 16.0143 27.5599 16.0806 27.6016 16.1472Z" fill="#E91E7A"/>
<path d="M24.0029 17.8116L16.2563 37.4575L19.6681 35.8798L27.4257 16.1635L27.4219 16.1582C26.9119 16.4345 26.3792 16.6701 25.8632 16.8984C25.2401 17.1737 24.5969 17.4586 24.0029 17.8116ZM15.6733 38.0748L23.7484 17.596L23.7945 17.5685C24.4178 17.1924 25.0876 16.8962 25.735 16.6094C26.2892 16.3644 26.8627 16.1108 27.3995 15.8099L27.5306 15.7366L27.7778 16.131L27.7485 16.2049L19.9156 36.1135L15.6733 38.0748Z" fill="black"/>
<path d="M37.201 33.2747C36.4264 29.5651 35.3212 26.2386 34.1524 23.0293C32.9979 26.2497 31.8573 29.5755 31.0659 33.2747H37.201ZM17.8164 51.1865C19.1964 47.483 20.5258 43.9161 21.8367 40.3989C21.4498 40.0562 21.0936 39.7401 20.715 39.4051C20.865 37.4027 21.0122 35.4356 21.1707 33.3161C22.1512 33.2229 23.0294 33.1395 24.1034 33.0378C24.2967 32.6659 24.5964 32.2184 24.765 31.7425C25.6861 29.1461 26.541 26.6176 27.4002 24.1699C27.9579 22.5818 28.5383 21.0309 29.0812 19.5038C29.3322 18.7971 29.522 18.0831 29.7945 17.3959C29.9865 16.9118 30.2736 16.4545 30.5376 15.9477C33.1151 16.0219 35.5457 16.0917 38.1093 16.1656C38.6376 17.6081 39.2174 19.0307 39.6857 20.5033C40.6409 23.5064 41.5289 26.6444 42.5571 29.8819C44.3319 35.4704 46.2983 41.4192 49.0586 47.5992C49.5421 48.6817 50.0498 49.7702 50.6401 51.0605C48.278 52.3947 45.5609 52.8362 42.9399 53.7927C41.6 48.814 40.3753 44.2635 39.2347 40.0244C37.5175 39.4938 32.7307 39.3773 29.2665 39.7502C27.5139 43.9553 26.4608 48.6482 25.3697 53.4953C23.613 53.565 19.3524 52.1996 17.8164 51.1865Z" fill="#E91E7A"/>
<path d="M31.2614 33.1169H37.0062C36.2407 29.516 35.1497 26.2533 34.1534 23.4952C33.098 26.4516 32.0231 29.623 31.2614 33.1169ZM37.3953 33.4327H30.8707L30.9115 33.242C31.7142 29.4895 32.8792 26.1127 34.004 22.976L34.1512 22.5645L34.3008 22.9754C35.3572 25.8762 36.5461 29.365 37.3555 33.2423L37.3953 33.4327ZM33.6772 39.3749C36.0374 39.3749 38.2352 39.5502 39.2811 39.8735L39.3645 39.8991L40.0343 42.3885L43.0475 53.586C43.9254 53.2731 44.8194 53.0122 45.6856 52.7593C47.3672 52.2685 48.9582 51.8043 50.4354 50.9934L49.9358 49.9049C49.5727 49.116 49.2383 48.3884 48.9146 47.6637C46.117 41.4 44.1654 35.4683 42.4065 29.9297C41.8864 28.2926 41.3994 26.6701 40.928 25.1006C40.4546 23.5245 40.0075 22.0356 39.535 20.5511C39.2132 19.5386 38.8315 18.5316 38.4626 17.5577C38.3063 17.1459 38.15 16.7338 37.9978 16.3204L30.6314 16.1086C30.5629 16.238 30.4927 16.3643 30.4242 16.4891C30.2417 16.8194 30.0696 17.1314 29.9414 17.4541C29.7825 17.8542 29.649 18.2742 29.5195 18.6807C29.4266 18.9724 29.3335 19.2652 29.2296 19.5566C28.9871 20.2406 28.7363 20.9291 28.4837 21.6235C28.172 22.4799 27.8572 23.3455 27.5493 24.2224C27.177 25.2822 26.8059 26.3578 26.4295 27.4469C25.9372 28.8734 25.436 30.3231 24.914 31.795C24.7915 32.1405 24.6036 32.4696 24.4381 32.7594C24.368 32.8826 24.3011 32.9998 24.2433 33.1103L24.2038 33.1867L21.3182 33.4608L20.8783 39.3386L22.0135 40.345L21.9845 40.4539L18.0087 51.1222C19.5169 52.0554 23.4538 53.34 25.2327 53.34H25.2431C26.3389 48.4715 27.3772 43.8727 29.1206 39.6891L29.1566 39.6029L29.2495 39.5931C30.6229 39.4453 32.1825 39.3749 33.6772 39.3749ZM42.8322 54L39.1052 40.1502C37.3763 39.6585 32.8182 39.5385 29.3761 39.8972C27.6582 44.0486 26.6281 48.6243 25.5383 53.467L25.4973 53.6485L25.376 53.6533C23.5413 53.7256 19.2532 52.3232 17.7292 51.3183L17.6244 51.2492L21.6507 40.4451L20.5517 39.4712L21.0232 33.1715L24.0039 32.8883C24.0532 32.797 24.1075 32.702 24.1637 32.6031C24.3229 32.3243 24.5032 32.0085 24.6166 31.6896C25.1379 30.2183 25.6388 28.7691 26.1311 27.344C26.5072 26.2542 26.8789 25.1783 27.2515 24.1176C27.5594 23.2397 27.8749 22.3732 28.1872 21.5158C28.4392 20.8217 28.6896 20.1342 28.9324 19.4512C29.0348 19.1629 29.1266 18.8733 29.2185 18.5847C29.3496 18.1735 29.4851 17.7481 29.648 17.3376C29.7832 16.9962 29.9603 16.6757 30.1476 16.3362C30.2306 16.1859 30.3153 16.0324 30.3977 15.8746L30.4432 15.7871L38.2204 16.0107L38.2574 16.1111C38.4209 16.5573 38.5892 17.0016 38.7576 17.4459C39.1283 18.4239 39.5113 19.4348 39.836 20.4554C40.309 21.9424 40.7565 23.4323 41.2302 25.0097C41.7017 26.5779 42.1886 28.1995 42.7074 29.834C44.4639 35.3644 46.4123 41.2864 49.2026 47.5349C49.5263 48.2587 49.86 48.985 50.2226 49.7729L50.8437 51.1266L50.7174 51.198C49.1729 52.0708 47.5216 52.5524 45.7737 53.0624C44.8595 53.3296 43.9134 53.6053 42.9939 53.9409L42.8322 54Z" fill="black"/>
<path d="M77.0959 34.1385H83.5226L80.2295 26.9678L77.0959 34.1385ZM76.777 40.6451H72.3155V40.5917C73.3245 40.0078 74.0418 38.9453 74.8118 37.2722L81.8759 21.7894H81.9825L89.4982 37.6709C90.2946 39.3437 90.6933 40.0078 91.6492 40.5917V40.6451H84.3725V40.5917C85.1426 40.1936 85.541 39.7688 85.541 39.1311C85.541 38.6532 85.3816 38.1753 85.1158 37.5907L83.8679 34.8818H76.7503L75.7944 37.0864C75.5555 37.5907 75.3964 38.1221 75.3964 38.6799C75.3964 39.5031 75.9007 40.1936 76.777 40.5917V40.6451Z" fill="black"/>
<path d="M99.4852 40.5918V40.645H92.527V40.5918C93.749 39.9013 94.0147 39.1045 94.0147 37.3519V25.348C94.0147 23.595 93.749 22.7986 92.527 22.1081V22.0546H99.4852V22.1081C98.2639 22.7986 97.9979 23.595 97.9979 25.348V37.3519C97.9979 39.1045 98.2639 39.9013 99.4852 40.5918Z" fill="black"/>
<path d="M108.622 39.9545C112.685 39.9545 115.447 37.1661 115.447 31.2173C115.447 25.7995 112.711 22.7451 108.383 22.7451H106.709V39.9545H108.622ZM101.239 40.5918C102.46 39.9013 102.726 39.1045 102.726 37.3519V25.348C102.726 23.595 102.46 22.7982 101.239 22.1077V22.0546H108.622C115.128 22.0546 119.749 25.0823 119.749 31.2173C119.749 37.644 115.022 40.645 108.993 40.645H101.239V40.5918Z" fill="black"/>
<path d="M89.9194 6.47689C94.0193 6.47152 98.0428 6.47784 102.156 6.47405C100.115 11.4676 98.1044 16.3889 96.0555 21.4033C93.9931 16.386 91.98 11.4891 89.9194 6.47689Z" fill="#E91E7A"/>
<path d="M90.1551 6.63439L96.0552 20.987L101.921 6.63217C100.058 6.63407 98.213 6.63375 96.3704 6.63281C94.3026 6.63312 92.2386 6.63186 90.1551 6.63439ZM96.0559 21.8197L89.6839 6.31923L89.9192 6.31891C92.0829 6.31639 94.2253 6.31702 96.3704 6.31702C98.2901 6.31797 100.213 6.31765 102.156 6.31607L102.391 6.31576L96.0559 21.8197Z" fill="black"/>
</svg>
