<svg width="121" height="55" viewBox="0 0 121 55" fill="none" xmlns="http://www.w3.org/2000/svg">
<path d="M0 21.8573C1.10419 21.6927 2.14162 21.2005 3.31385 21.1032C3.421 25.4945 4.38339 29.6834 5.12991 34.0381C5.24627 33.8391 5.34674 33.7361 5.36899 33.6188C5.87229 30.9462 6.3476 28.2685 6.87284 25.6004C7.08681 24.5137 6.9714 23.4785 6.64265 22.4446C6.59591 22.2983 6.56539 22.1467 6.50371 21.9031C7.56943 21.6214 8.59955 21.3493 9.71042 21.0555C10.0716 23.2782 10.2223 25.4793 10.7059 27.6327C11.1831 29.7565 11.5207 31.9115 12.0638 34.0776C12.1372 33.835 12.238 33.5968 12.2793 33.3488C12.5089 31.9747 12.7248 30.5984 12.9435 29.2227C13.1123 28.1608 13.2971 27.1008 13.442 26.0357C13.6636 24.4081 13.8569 22.7768 14.0709 21.0762C15.1093 21.3693 16.0955 21.6481 17.1107 21.9349C15.7131 28.5064 14.7503 35.0994 13.5915 41.737C12.6113 41.8791 11.6571 41.7516 10.6165 41.8352C9.95141 38.3719 9.29233 34.9392 8.63325 31.5064C8.5916 31.5074 8.55027 31.5083 8.50862 31.5093C7.84222 34.8997 7.17583 38.2902 6.49831 41.7379C5.49267 41.8775 4.54204 41.7971 3.51129 41.8018C3.36631 40.9587 3.21879 40.1247 3.08049 39.2892C2.89418 38.1653 2.71009 37.041 2.53491 35.9152C2.38898 34.977 2.26307 34.0353 2.11809 33.0967C1.85739 31.4088 1.6237 29.7155 1.31403 28.0364C0.975111 26.2 0.564337 24.377 0.177091 22.5498C0.153881 22.4395 0.0607259 22.3438 0 22.2414V21.8573Z" fill="white"/>
<path d="M64.5424 42.0269C64.199 41.5296 64.3672 40.9821 64.3949 40.4515C64.4314 39.7542 64.5224 39.0576 64.5182 38.3614C64.5166 38.1042 64.3539 37.8183 64.1943 37.5964C62.7626 35.6077 61.3128 33.6321 59.8754 31.6472C59.6598 31.3496 59.4805 31.0259 59.1359 30.7493C59.1311 31.6459 59.1403 32.5428 59.1174 33.4388C59.0939 34.3611 59.0033 35.2825 59.0081 36.2042C59.0128 37.1262 59.1076 38.0476 59.147 38.9696C59.1864 39.8878 59.2061 40.8069 59.2351 41.7429C58.638 41.9095 56.7965 41.9474 55.1591 41.8021C55.2062 41.4377 55.2793 41.0759 55.2943 40.7116C55.3232 40.0083 55.3273 39.304 55.3276 38.5998C55.3308 34.3754 55.3232 30.151 55.3404 25.9265C55.3423 25.4773 55.2393 25.1358 54.9216 24.8144C54.5668 24.4551 54.267 24.0418 53.9119 23.6139C54.3236 23.0235 54.9623 22.7882 55.5041 22.4277C56.0541 22.0617 56.5972 21.6853 57.1701 21.2952C57.7045 22.165 58.1814 23.0279 58.7413 23.8333C59.594 25.0595 60.511 26.2413 61.3885 27.4504C62.3591 28.7877 63.3155 30.1348 64.281 31.4755C64.3163 31.5241 64.3825 31.5502 64.5335 31.657C64.5395 30.8113 64.5472 30.0327 64.55 29.2541C64.5532 28.4541 64.5548 27.6542 64.5507 26.854C64.5468 26.0862 64.5564 25.3171 64.5201 24.5505C64.4826 23.7592 64.3968 22.9701 64.3287 22.1393C65.0387 21.9151 65.7404 22.0658 66.4281 22.0366C67.0983 22.0083 67.7704 22.0306 68.4823 22.0306C68.5147 22.1612 68.5888 22.2868 68.5656 22.3908C68.2766 23.6832 68.4047 24.9966 68.3726 26.2998C68.3341 27.8669 68.4476 29.4429 68.3271 31.0021C68.1694 33.0471 68.1904 35.0885 68.2311 37.13C68.2575 38.4618 68.4349 39.7905 68.5455 41.1204C68.5719 41.4371 68.6244 41.7579 68.3843 42.0269H64.5424Z" fill="white"/>
<path d="M34.3751 0.505117C38.0874 0.34742 40.9901 3.54332 41.0938 6.80916C41.2171 10.6874 38.3573 13.6788 34.5271 13.7484C30.5752 13.8203 28.0902 10.6193 27.8479 7.72482C27.502 3.59005 31.0219 0.33979 34.3751 0.505117Z" fill="#E91E7A"/>
<path d="M41.0591 16.3966C41.6616 16.671 42.2647 16.9431 42.8659 17.2204C43.4671 17.4979 44.0658 17.7806 44.6562 18.0569C45.9782 21.4187 47.3002 24.7749 48.6171 28.1329C49.9152 31.4423 51.2598 34.7342 52.4965 38.085C52.3382 38.1171 52.2663 38.1568 52.2228 38.1368C51.0995 37.6157 49.9794 37.0885 48.7865 36.5283C46.1712 29.8892 43.5412 23.2135 40.9116 16.5374C40.9608 16.4904 41.0098 16.4436 41.0591 16.3966Z" fill="#E91E7A"/>
<path d="M27.7894 16.5975C25.1737 23.2452 22.5584 29.8929 19.9265 36.582C18.7304 37.1352 17.5057 37.7014 16.0734 38.3637C18.7806 31.4982 21.4062 24.8393 24.038 18.1646C25.1934 17.4676 26.4846 17.0575 27.6635 16.3965C27.7054 16.4636 27.7474 16.5304 27.7894 16.5975Z" fill="#E91E7A"/>
<path d="M37.4541 33.8415C36.6742 30.1067 35.5614 26.7575 34.3848 23.5263C33.2224 26.7687 32.074 30.1172 31.2772 33.8415H37.4541ZM17.9376 51.8752C19.327 48.1464 20.6655 44.5553 21.9852 41.0141C21.5958 40.6692 21.2371 40.3509 20.8559 40.0136C21.0069 37.9975 21.1551 36.0171 21.3147 33.8831C22.3019 33.7893 23.1861 33.7054 24.2674 33.603C24.462 33.2285 24.7637 32.778 24.9335 32.2988C25.8609 29.6848 26.7215 27.1391 27.5866 24.6747C28.1481 23.0758 28.7325 21.5144 29.279 19.9769C29.5318 19.2654 29.7228 18.5465 29.9972 17.8547C30.1905 17.3673 30.4795 16.9069 30.7453 16.3966C33.3403 16.4713 35.7875 16.5416 38.3685 16.616C38.9004 18.0683 39.4841 19.5006 39.9556 20.9832C40.9174 24.0067 41.8114 27.1661 42.8466 30.4256C44.6334 36.0521 46.6132 42.0414 49.3923 48.2634C49.8791 49.3533 50.3903 50.4492 50.9845 51.7483C48.6064 53.0916 45.8708 53.5361 43.232 54.4991C41.883 49.4865 40.65 44.905 39.5016 40.6371C37.7727 40.1029 32.9534 39.9856 29.4656 40.3611C27.7011 44.5947 26.6408 49.3196 25.5423 54.1996C23.7736 54.2699 19.484 52.8951 17.9376 51.8752Z" fill="#E91E7A"/>
<path d="M77.6204 34.7112H84.0908L80.7753 27.4917L77.6204 34.7112ZM77.2993 41.262H72.8075V41.2082C73.8234 40.6203 74.5455 39.5506 75.3208 37.8661L82.4329 22.278H82.5402L90.107 38.2676C90.9088 39.9517 91.3103 40.6203 92.2727 41.2082V41.262H84.9465V41.2082C85.7218 40.8074 86.1229 40.3797 86.1229 39.7377C86.1229 39.2565 85.9624 38.7753 85.6949 38.1868L84.4384 35.4595H77.2724L76.31 37.679C76.0695 38.1868 75.9093 38.7218 75.9093 39.2834C75.9093 40.1122 76.4171 40.8074 77.2993 41.2082V41.262Z" fill="white"/>
<path d="M100.162 41.2084V41.2619H93.1565V41.2084C94.3867 40.5132 94.6542 39.711 94.6542 37.9464V25.8609C94.6542 24.096 94.3867 23.2941 93.1565 22.5989V22.5451H100.162V22.5989C98.9324 23.2941 98.6645 24.096 98.6645 25.8609V37.9464C98.6645 39.711 98.9324 40.5132 100.162 41.2084Z" fill="white"/>
<path d="M109.36 40.5667C113.452 40.5667 116.232 37.7593 116.232 31.77C116.232 26.3155 113.478 23.2402 109.12 23.2402H107.435V40.5667H109.36ZM101.927 41.2084C103.157 40.5132 103.425 39.711 103.425 37.9464V25.8609C103.425 24.096 103.157 23.2938 101.927 22.5986V22.5451H109.36C115.911 22.5451 120.564 25.5934 120.564 31.77C120.564 38.2405 115.804 41.2619 109.735 41.2619H101.927V41.2084Z" fill="white"/>
<path d="M90.5311 6.86137C94.6589 6.85597 98.7097 6.86233 102.851 6.85851C100.796 11.886 98.7717 16.8408 96.709 21.8893C94.6325 16.8379 92.6057 11.9077 90.5311 6.86137Z" fill="#E91E7A"/>
</svg>
