<svg width="136" height="25" viewBox="0 0 136 25" fill="none" xmlns="http://www.w3.org/2000/svg">
<path d="M16.4501 15.3067C16.4501 16.1123 16.3462 16.8226 16.1383 17.4376C15.939 18.0527 15.6532 18.5854 15.2807 19.0359C14.9168 19.4863 14.4837 19.8631 13.9813 20.1663C13.4789 20.4695 12.9288 20.7121 12.3311 20.894C11.742 21.0759 11.114 21.2058 10.447 21.2838C9.78864 21.3617 9.11729 21.4007 8.43295 21.4007C7.53205 21.4007 6.70045 21.3314 5.93815 21.1928C5.17585 21.0629 4.45686 20.855 3.78119 20.5691C3.11417 20.2746 2.46882 19.8978 1.84511 19.4387C1.23008 18.9796 0.615038 18.4208 0 17.7625L2.65073 15.0728C2.89328 15.6705 3.22678 16.2249 3.65125 16.736C4.07571 17.2384 4.53915 17.6715 5.04158 18.0353C5.55267 18.3992 6.08108 18.685 6.62682 18.8929C7.17256 19.1008 7.68798 19.2048 8.17308 19.2048C8.7448 19.2048 9.28188 19.1658 9.7843 19.0878C10.2867 19.0012 10.7242 18.8626 11.0967 18.672C11.4692 18.4815 11.7594 18.2302 11.9673 17.9184C12.1838 17.5979 12.2921 17.1994 12.2921 16.723C12.2921 16.3591 12.2098 16.0473 12.0452 15.7874C11.8806 15.5275 11.6641 15.3067 11.3955 15.1247C11.1357 14.9342 10.8368 14.7739 10.499 14.644C10.1611 14.514 9.81462 14.4058 9.45946 14.3191C9.11296 14.2238 8.77079 14.1415 8.43295 14.0722C8.09512 13.9943 7.79626 13.9163 7.53638 13.8384C7.0253 13.6911 6.49255 13.5352 5.93815 13.3706C5.38375 13.1973 4.83801 13.0024 4.30094 12.7859C3.76386 12.5693 3.25277 12.3224 2.76767 12.0452C2.29123 11.7594 1.8711 11.4258 1.50728 11.0447C1.14345 10.6549 0.853257 10.2088 0.636694 9.70634C0.420132 9.19525 0.31185 8.61053 0.31185 7.95218C0.31185 7.16389 0.407138 6.46656 0.597713 5.86019C0.796951 5.24515 1.07415 4.7124 1.42931 4.26195C1.78448 3.8115 2.20461 3.43468 2.68971 3.1315C3.17481 2.81965 3.70755 2.57276 4.28794 2.39085C4.86833 2.20028 5.48337 2.06601 6.13306 1.98805C6.79141 1.90142 7.46275 1.85811 8.14709 1.85811C9.08264 1.85811 9.93157 1.94473 10.6939 2.11798C11.4648 2.29123 12.1752 2.53811 12.8248 2.85863C13.4745 3.17914 14.0679 3.56462 14.605 4.01507C15.1507 4.45686 15.6618 4.95062 16.1383 5.49636L13.4875 8.18607C13.2796 7.56237 12.9894 6.99931 12.6169 6.49688C12.2531 5.99446 11.846 5.56566 11.3955 5.2105C10.9451 4.84667 10.473 4.56947 9.97921 4.3789C9.48545 4.17966 9.00901 4.08004 8.5499 4.08004C7.95218 4.08004 7.40211 4.12335 6.89969 4.20998C6.39726 4.28794 5.96414 4.42221 5.60031 4.61279C5.24515 4.7947 4.96795 5.04591 4.76871 5.36642C4.56947 5.67827 4.46985 6.06809 4.46985 6.53586C4.46985 6.90835 4.54349 7.22453 4.69075 7.48441C4.83801 7.74428 5.03292 7.96518 5.27547 8.14709C5.52668 8.329 5.80821 8.4806 6.12006 8.60187C6.43191 8.71448 6.75243 8.8141 7.0816 8.90073C7.41944 8.98735 7.74861 9.06531 8.06913 9.13461C8.3983 9.19525 8.69716 9.26455 8.9657 9.34251C9.48545 9.48978 10.0312 9.6457 10.6029 9.81029C11.1746 9.97488 11.7377 10.1698 12.2921 10.395C12.8465 10.6116 13.3749 10.8628 13.8773 11.1486C14.3798 11.4345 14.8216 11.7767 15.2027 12.1752C15.5839 12.565 15.887 13.0197 16.1123 13.5395C16.3375 14.0506 16.4501 14.6396 16.4501 15.3067Z" fill="#0a63ea"/>
<path d="M37.487 12.0712V12.3181C37.4697 13.0457 37.3917 13.7994 37.2531 14.579C37.1232 15.3586 36.9369 16.1383 36.6944 16.9179C36.4518 17.6975 36.1616 18.4685 35.8238 19.2308C35.486 19.9931 35.1048 20.7207 34.6804 21.4137C34.2646 22.1154 33.8141 22.7694 33.329 23.3758C32.8439 23.9908 32.3328 24.5322 31.7957 25L29.8597 23.8825C30.1629 23.3714 30.4357 22.8127 30.6783 22.2063C30.9295 21.6086 31.1547 20.9806 31.354 20.3222C31.5532 19.6639 31.7221 18.9882 31.8607 18.2952C32.008 17.6022 32.1292 16.9135 32.2245 16.2292C32.3198 15.5449 32.3891 14.8735 32.4324 14.2152C32.4844 13.5482 32.5104 12.9158 32.5104 12.3181C32.5104 11.8503 32.5061 11.3219 32.4974 10.7328C32.4974 10.1351 32.4628 9.52876 32.3935 8.91372C32.3328 8.29868 32.2289 7.70097 32.0816 7.12058C31.9343 6.53153 31.7134 6.00745 31.4189 5.54834C31.1331 5.08922 30.7606 4.72107 30.3015 4.44387C29.851 4.16667 29.2879 4.02807 28.6123 4.02807C28.0146 4.02807 27.4991 4.13202 27.066 4.33992C26.6415 4.53915 26.2777 4.81202 25.9745 5.15852C25.68 5.49636 25.4418 5.89051 25.2599 6.34096C25.0866 6.79141 24.948 7.26784 24.8441 7.77027C24.7488 8.26403 24.6838 8.76646 24.6492 9.27755C24.6232 9.77997 24.6102 10.2564 24.6102 10.7069V14.3321H30.2105V16.4761H24.6102V21.0239H19.4517V11.5125C19.4517 10.1525 19.6682 8.88773 20.1014 7.7183C20.5345 6.54886 21.1452 5.53534 21.9335 4.67775C22.7304 3.8115 23.6833 3.13583 24.7921 2.65073C25.9096 2.15696 27.1526 1.91008 28.5213 1.91008C29.4482 1.91008 30.3145 2.04435 31.1201 2.31289C31.9343 2.57277 32.675 2.93659 33.342 3.40437C34.009 3.86348 34.6024 4.41355 35.1221 5.05457C35.6506 5.68694 36.088 6.37994 36.4345 7.13358C36.7897 7.88721 37.0582 8.68417 37.2401 9.52443C37.422 10.3647 37.5043 11.2136 37.487 12.0712Z" fill="#0a63ea"/>
<path d="M44.3217 7.06861L42.8664 21.0239H39.683L42.8664 2.31289H47.5832L51.9621 16.593L56.3929 2.31289H61.1097L63.7604 21.0239H58.5109L56.9647 7.43243L53.3134 21.0239H48.5967L44.3217 7.06861Z" fill="#0a63ea"/>
<path d="M72.2063 21.0239H67.0478V2.31289H72.2063V21.0239Z" fill="#0a63ea"/>
<path d="M81.6138 21.0239H76.4553V2.31289H85.6549C86.5211 2.31289 87.3571 2.41684 88.1627 2.62474C88.9683 2.82398 89.6786 3.14449 90.2937 3.58628C90.9174 4.0194 91.4111 4.58247 91.775 5.27547C92.1474 5.96847 92.3337 6.80873 92.3337 7.79626C92.3337 8.56722 92.1691 9.29487 91.8399 9.97921C91.5194 10.6549 91.0863 11.2613 90.5405 11.7983C90.0035 12.3267 89.3841 12.7685 88.6824 13.1237C87.9808 13.4702 87.2531 13.6998 86.4995 13.8124C86.8373 14.3841 87.1882 14.9255 87.552 15.4366C87.9245 15.9477 88.297 16.4284 88.6694 16.8789C89.0506 17.3207 89.4274 17.7322 89.7999 18.1133C90.1724 18.4858 90.5275 18.828 90.8654 19.1398C91.6623 19.8675 92.4506 20.4955 93.2303 21.0239H86.7983C86.2786 20.5301 85.7848 19.9368 85.3171 19.2438C84.9186 18.6547 84.5158 17.9271 84.1086 17.0608C83.7102 16.1859 83.4026 15.1767 83.1861 14.0333H81.6138V21.0239ZM87.0972 7.79626C87.0972 6.54019 86.7897 5.61764 86.1746 5.02859C85.5683 4.43954 84.6544 4.14501 83.433 4.14501H81.6138V12.2661H83.433C84.0826 12.2661 84.637 12.1448 85.0962 11.9023C85.5639 11.6511 85.9451 11.3219 86.2396 10.9148C86.5341 10.499 86.7507 10.0225 86.8893 9.48545C87.0279 8.94837 87.0972 8.38531 87.0972 7.79626Z" fill="#0a63ea"/>
<path d="M99.987 2.39085C99.987 2.72003 99.922 3.03188 99.7921 3.3264C99.6708 3.62093 99.5019 3.87647 99.2853 4.09304C99.0688 4.3096 98.8132 4.48285 98.5187 4.61279C98.2242 4.73406 97.9123 4.7947 97.5832 4.7947C97.254 4.7947 96.9421 4.73406 96.6476 4.61279C96.3618 4.48285 96.1105 4.3096 95.894 4.09304C95.6774 3.87647 95.5042 3.62093 95.3742 3.3264C95.2529 3.03188 95.1923 2.72003 95.1923 2.39085C95.1923 2.06168 95.2529 1.75416 95.3742 1.4683C95.5042 1.17377 95.6774 0.918226 95.894 0.701663C96.1105 0.4851 96.3618 0.316182 96.6476 0.194906C96.9421 0.0649688 97.254 0 97.5832 0C97.9123 0 98.2242 0.0649688 98.5187 0.194906C98.8132 0.316182 99.0688 0.4851 99.2853 0.701663C99.5019 0.918226 99.6708 1.17377 99.7921 1.4683C99.922 1.75416 99.987 2.06168 99.987 2.39085ZM99.7921 21.0239H95.3872V6.02911H99.7921V21.0239Z" fill="black"/>
<path d="M108.927 21.0239H103.768V2.31289H117.204V4.70374H108.927V10.486H115.32V12.8638H108.927V21.0239Z" fill="black"/>
<path d="M135.096 2.31289L129.041 13.1627V21.0239H123.883V13.4485L117.762 2.31289H123.025L127.092 11.7204L131.458 2.31289H135.096Z" fill="black"/>
</svg>
